<?xml version="1.0" standalone="no"?><!DOCTYPE svg PUBLIC "-//W3C//DTD SVG 1.1//EN" "http://www.w3.org/Graphics/SVG/1.1/DTD/svg11.dtd"><svg t="1592126095927" class="icon" viewBox="0 0 1024 1024" version="1.1" xmlns="http://www.w3.org/2000/svg" p-id="1975" xmlns:xlink="http://www.w3.org/1999/xlink" width="200" height="200"><defs><style type="text/css"></style></defs><path d="M249.78773334 458.47893334c13.65333333 0 27.30666667 5.46133333 38.22933333 15.83786666l443.46026667 439.0912c21.2992 21.2992 21.29919999 55.15946667 0.54613333 76.45866667s-55.15946667 21.29919999-76.45866666 0.54613332l-443.46026667-439.09119999a54.23104 54.23104 0 0 1-0.54613332-76.45866668c9.8304-11.46880001 24.02986667-16.384 38.22933332-16.38399998z" fill="#8a8a8a" p-id="1976"></path><path d="M688.33280001 15.01866666c13.65333333 0 27.30666667 5.46133333 38.22933333 15.83786666 21.2992 21.2992 21.29919999 55.15946667 0.54613333 76.45866668l-439.0912 443.46026667a54.23104 54.23104 0 0 1-76.45866666 0.54613333 54.23104 54.23104 0 0 1-0.54613334-76.45866665L650.10346667 31.40266667c10.37653333-10.92266667 24.576-16.384 38.22933334-16.38400001z" fill="#8a8a8a" p-id="1977"></path></svg>