<?xml version="1.0" standalone="no"?><!DOCTYPE svg PUBLIC "-//W3C//DTD SVG 1.1//EN" "http://www.w3.org/Graphics/SVG/1.1/DTD/svg11.dtd"><svg t="1593402565906" class="icon" viewBox="0 0 1024 1024" version="1.1" xmlns="http://www.w3.org/2000/svg" p-id="22580" xmlns:xlink="http://www.w3.org/1999/xlink" width="200" height="200"><defs><style type="text/css"></style></defs><path d="M512 0C227.555556 0 0 227.555556 0 512s227.555556 512 512 512 512-227.555556 512-512-227.555556-512-512-512z" fill="#FF4B7D" p-id="22581"></path><path d="M819.2 392.533333l-341.333333 341.333334c-11.377778 11.377778-22.755556 11.377778-34.133334 11.377777s-22.755556-5.688889-34.133333-11.377777l-170.666667-170.666667c-11.377778-17.066667-11.377778-45.511111 5.688889-62.577778 17.066667-17.066667 45.511111-17.066667 62.577778 0l136.533333 136.533334 312.888889-312.888889c17.066667-17.066667 45.511111-17.066667 62.577778 0 22.755556 17.066667 22.755556 45.511111 0 68.266666z" fill="#FFFFFF" p-id="22582"></path></svg>