<?xml version="1.0" standalone="no"?><!DOCTYPE svg PUBLIC "-//W3C//DTD SVG 1.1//EN" "http://www.w3.org/Graphics/SVG/1.1/DTD/svg11.dtd"><svg t="1593768441829" class="icon" viewBox="0 0 1072 1024" version="1.1" xmlns="http://www.w3.org/2000/svg" p-id="3111" data-spm-anchor-id="a313x.7781069.0.i17" xmlns:xlink="http://www.w3.org/1999/xlink" width="209.375" height="200"><defs><style type="text/css"></style></defs><path d="M277.297212 659.433345c-41.496331-0.115589-75.132633-35.948075-75.132634-77.444407V413.807427c0.115589-41.496331 33.636302-76.28852 75.132634-76.28852l75.132633-1.155886v22.886556l-80.912066 2.311773c-19.765662 0.231177-44.963991 32.480415-45.310758 52.246077l-1.155887 169.10622c-0.346766 20.343605 29.590699 55.598149 49.934305 56.060504l356.822214-4.623547v23.695677l-354.510441 1.387064z m483.738571-2.311774v-25.198329l74.901456-1.155887c10.056214 0.115589 26.585393-4.854724 33.636302-12.021221 7.050909-7.050909 14.448583-24.851563 14.332995-34.792189V412.651541c0.115589-10.056214-8.322384-30.053053-15.488882-37.103962-7.050909-7.050909-23.695677-13.292697-33.636302-13.177108l-357.746924-1.155887V338.674794h358.902811c19.996839-0.231177 39.184558 7.628852 53.286375 21.846258 14.101817 14.101817 21.961847 33.289536 21.846258 53.286375v166.794447c0.231177 19.996839-7.628852 39.184558-21.846258 53.286375-14.101817 14.101817-33.289536 21.961847-53.286375 21.846258h-74.901456v1.387064z m0 0" fill="#ff8198" p-id="3112" data-spm-anchor-id="a313x.7781069.0.i18" class="selected"></path><path d="M472.52647 852.466418c-41.380743-0.115589-75.017045-33.636302-75.132633-75.132633v-60.106107h26.238627v60.106107c0 9.593859 4.970313 24.504797 11.674456 31.324529 6.704143 6.819731 19.418896 19.881251 29.012755 19.765662H639.205328c10.056214 0.115589 27.74128-6.010611 34.792189-13.177108 7.050909-7.050909 17.916243-29.47511 17.800654-39.415736V422.823343H714.337961v354.626031c0.231177 19.996839-7.628852 39.184558-21.846258 53.286375-14.101817 14.101817-33.289536 21.961847-53.286375 21.846258H472.52647z m0 0M399.012078 568.465064V218.46258c0.115589-41.496331 33.636302-75.017045 75.132634-75.132633h166.794446c19.996839-0.231177 39.184558 7.628852 53.401964 21.846258 14.101817 14.101817 21.961847 33.405125 21.846258 53.401964v72.242917h-22.886556V218.46258c-0.231177-19.765662-24.389209-50.743425-44.154871-51.09019H472.52647c-19.765662 0.231177-48.54724 30.053053-48.778417 49.934304v348.49983l-24.735975 1.155887v1.502653z m0 0" fill="#ff8198" p-id="3113" data-spm-anchor-id="a313x.7781069.0.i16" class="selected"></path><path d="M698.271137 248.515634m-49.125184 0a49.125183 49.125183 0 1 0 98.250367 0 49.125183 49.125183 0 1 0-98.250367 0Z" fill="#ff8198" p-id="3114" data-spm-anchor-id="a313x.7781069.0.i14" class="selected"></path><path d="M410.10859 542.688791m-49.125183 0a49.125183 49.125183 0 1 0 98.250367 0 49.125183 49.125183 0 1 0-98.250367 0Z" fill="#ff8198" p-id="3115" data-spm-anchor-id="a313x.7781069.0.i12" class="selected"></path><path d="M703.241449 440.739587m-49.125183 0a49.125183 49.125183 0 1 0 98.250367 0 49.125183 49.125183 0 1 0-98.250367 0Z" fill="#ff8198" p-id="3116" data-spm-anchor-id="a313x.7781069.0.i13" class="selected"></path><path d="M410.10859 740.692177m-49.125183 0a49.125183 49.125183 0 1 0 98.250367 0 49.125183 49.125183 0 1 0-98.250367 0Z" fill="#ff8198" p-id="3117" data-spm-anchor-id="a313x.7781069.0.i11" class="selected"></path></svg>