<?xml version="1.0" standalone="no"?><!DOCTYPE svg PUBLIC "-//W3C//DTD SVG 1.1//EN" "http://www.w3.org/Graphics/SVG/1.1/DTD/svg11.dtd"><svg t="1592664009976" class="icon" viewBox="0 0 1024 1024" version="1.1" xmlns="http://www.w3.org/2000/svg" p-id="3423" xmlns:xlink="http://www.w3.org/1999/xlink" width="200" height="200"><defs><style type="text/css"></style></defs><path d="M890 480a35 35 0 0 1-35-35c0-190.79-155.21-346-346-346S163 254.21 163 445a35 35 0 0 1-70 0 416.09 416.09 0 0 1 799.29-161.94A413.32 413.32 0 0 1 925 445a35 35 0 0 1-35 35zM557 965a413.17 413.17 0 0 1-48-2.81 25 25 0 0 1 5.85-49.66A361.34 361.34 0 0 0 557 915c196.3 0 356-159.7 356-356a25 25 0 0 1 50 0 405.7 405.7 0 0 1-406 406z" fill="#ff8198" p-id="3424"></path><path d="M112 684a70 70 0 0 1-70-70V437a70 70 0 0 1 140 0v177a70 70 0 0 1-70 70zM917 684a70 70 0 0 1-70-70V437a70 70 0 0 1 140 0v177a70 70 0 0 1-70 70z" fill="#ff8198" p-id="3425"></path><path d="M501 945m-67 0a67 67 0 1 0 134 0 67 67 0 1 0-134 0Z" fill="#ff8198" p-id="3426"></path><path d="M507 162c-197.72 0-358 160.28-358 358 0 146.26 87.71 272 213.4 327.59 9.11 4 16.83-7.78 9.51-14.54A316.84 316.84 0 0 1 289 708c-40-111-11-147 22-170s238-24 279-60c27.51-24.16 37-60.92 43-96.4 3.24-19.2 28.58-24.12 38.66-7.45C697.26 416.44 731.48 491.69 744 605c12.55 113.54-34.62 182.51-74.62 219.64-5.6 5.21 0.84 14.16 7.57 10.52 112-60.51 188-178.95 188-315.16C865 322.28 704.72 162 507 162z" fill="#ff8198" p-id="3427"></path><path d="M416 731.13c29.29 16.31 118.54 54.87 210.91-16.75a4.38 4.38 0 0 1 7 4.48C627.66 745.35 604.23 807 521 807c-56.62 0-95.73-30.86-111.23-70.48a4.39 4.39 0 0 1 6.23-5.39z" fill="#ff8198" p-id="3428"></path></svg>