<?xml version="1.0" standalone="no"?><!DOCTYPE svg PUBLIC "-//W3C//DTD SVG 1.1//EN" "http://www.w3.org/Graphics/SVG/1.1/DTD/svg11.dtd"><svg t="1593566090682" class="icon" viewBox="0 0 1024 1024" version="1.1" xmlns="http://www.w3.org/2000/svg" p-id="11641" xmlns:xlink="http://www.w3.org/1999/xlink" width="200" height="200"><defs><style type="text/css"></style></defs><path d="M819.203 405.649c0-169.66-137.541-307.19-307.201-307.19s-307.195 137.53-307.195 307.19c-113.105 0-204.8 91.69-204.8 204.801s91.695 204.801 204.8 204.801h102.4V733.33h-102.4c-67.755 0-122.88-55.12-122.88-122.88 0-67.761 55.125-122.881 122.88-122.881h81.92v-81.92c0-124.22 101.055-225.28 225.275-225.28 124.221 0 225.281 101.06 225.281 225.28v81.92h81.92c67.76 0 122.871 55.12 122.871 122.881 0 67.76-55.111 122.88-122.871 122.88h-102.4v81.921h102.4c113.09 0 204.791-91.69 204.791-204.801s-91.701-204.801-204.791-204.801z" fill="#ff8198" p-id="11642"></path><path d="M511.393 925.541l221.281-238.02-64.441-60-110.79 119.22V410.22h-92.16v336.47L354.488 627.521l-64.431 60z" fill="#ff8198" p-id="11643"></path></svg>