<?xml version="1.0" standalone="no"?><!DOCTYPE svg PUBLIC "-//W3C//DTD SVG 1.1//EN" "http://www.w3.org/Graphics/SVG/1.1/DTD/svg11.dtd"><svg t="1593567196661" class="icon" viewBox="0 0 1024 1024" version="1.1" xmlns="http://www.w3.org/2000/svg" p-id="17047" xmlns:xlink="http://www.w3.org/1999/xlink" width="200" height="200"><defs><style type="text/css"></style></defs><path d="M624.758888 314.26991l144.815469 144.815469-24.135912 24.135911-144.815468-144.815469 24.135911-24.135911Z" fill="#ff8198" p-id="17048"></path><path d="M745.435488 314.271135l-144.815469 144.815469 24.135912 24.135911 144.815469-144.815469-24.135912-24.135911Z" fill="#ff8198" p-id="17049"></path><path d="M273.245288 314.26991l144.815469 144.815469-24.135912 24.135911-144.815468-144.815469 24.135911-24.135911Z" fill="#ff8198" p-id="17050"></path><path d="M393.921888 314.271135l-144.815469 144.815469 24.135912 24.135911 144.815469-144.815469-24.135912-24.135911Z" fill="#ff8198" p-id="17051"></path><path d="M512 1024C229.230933 1024 0 794.769067 0 512S229.230933 0 512 0s512 229.230933 512 512-229.230933 512-512 512z m0-34.133333c263.918933 0 477.866667-213.947733 477.866667-477.866667S775.918933 34.133333 512 34.133333 34.133333 248.081067 34.133333 512s213.947733 477.866667 477.866667 477.866667z" fill="#ff8198" p-id="17052"></path><path d="M513.3824 753.5872l-103.739733 0.128 0.008533-0.017067-42.717867 0.042667C393.821867 701.405867 448.341333 665.6 511.232 665.6c62.7712 0 117.213867 35.669333 144.1536 87.842133l-142.0032 0.145067z m0 0l106.564267-0.119467C596.7872 720.571733 557.397333 699.733333 514.0992 699.733333a127.6928 127.6928 0 0 0-104.448 53.9648l103.7312-0.110933z" fill="#ff8198" p-id="17053"></path></svg>