<?xml version="1.0" standalone="no"?><!DOCTYPE svg PUBLIC "-//W3C//DTD SVG 1.1//EN" "http://www.w3.org/Graphics/SVG/1.1/DTD/svg11.dtd"><svg t="1592661880245" class="icon" viewBox="0 0 1024 1024" version="1.1" xmlns="http://www.w3.org/2000/svg" p-id="4947" xmlns:xlink="http://www.w3.org/1999/xlink" width="200" height="200"><defs><style type="text/css"></style></defs><path d="M641.77600098 252.61279297c-51.16882325 0-98.62976075 25.9552002-129.77600098 68.22509766-31.14624023-42.26989747-78.60717773-68.22509766-129.77600098-68.22509766-91.95556641 0-166.8548584 81.57348633-166.8548584 182.42797851 0 60.06774903 26.69677734 102.33764648 48.20251466 135.70861817 62.29248047 98.62976075 220.24841309 220.24841309 226.92260741 225.43945312 6.67419434 5.19104004 14.08996583 7.41577148 21.50573731 7.41577149s14.83154297-2.22473145 21.50573731-7.41577148c6.67419434-5.19104004 163.88854981-127.55126953 226.92260741-225.43945314 21.50573731-34.11254883 48.20251465-76.38244629 48.20251465-135.70861816 0-100.11291504-74.899292-182.42797852-166.8548584-182.42797851z" fill="#ff0000" p-id="4948"></path><path d="M717.41687012 570.0078125c-57.84301758 80.83190918-180.20324708 173.52905273-186.13586426 177.97851563-5.93261719 4.44946289-12.60681153 6.67419434-19.28100586 6.67419434-6.67419434 0-13.34838867-2.22473145-19.28100586-6.67419435-5.93261719-4.44946289-126.06811523-97.88818359-186.13586426-181.68640137-19.28100586-30.40466309-50.42724609-68.22509766-50.42724609-121.61865233 0-89.73083497 50.42724609-153.50646973 132.00073242-153.50646973 45.9777832 0 95.66345215 43.75305176 123.10180665 81.57348633 28.17993164-37.82043458 77.12402344-81.57348633 123.10180663-81.57348633 82.31506348 0 135.70861817 63.03405762 135.70861817 153.50646973 0.74157715 53.39355469-33.37097168 95.66345215-52.65197755 125.32653808z" fill="#ff0000" p-id="4949"></path></svg>