<?xml version="1.0" standalone="no"?><!DOCTYPE svg PUBLIC "-//W3C//DTD SVG 1.1//EN" "http://www.w3.org/Graphics/SVG/1.1/DTD/svg11.dtd"><svg t="1593757287390" class="icon" viewBox="0 0 1024 1024" version="1.1" xmlns="http://www.w3.org/2000/svg" p-id="3607" xmlns:xlink="http://www.w3.org/1999/xlink" width="200" height="200"><defs><style type="text/css"></style></defs><path d="M691.2 131.072c-70.656 0-136.192 35.84-179.2 94.208-43.008-58.368-108.544-94.208-179.2-94.208-126.976 0-230.4 112.64-230.4 251.904 0 82.944 36.864 141.312 66.56 187.392 86.016 136.192 304.128 304.128 313.344 311.296 9.216 7.168 19.456 10.24 29.696 10.24s20.48-3.072 29.696-10.24c9.216-7.168 226.304-176.128 313.344-311.296 29.696-47.104 66.56-105.472 66.56-187.392 0-138.24-103.424-251.904-230.4-251.904z" fill="#F78885" p-id="3608"></path><path d="M795.648 569.344c-79.872 111.616-248.832 239.616-257.024 245.76-8.192 6.144-17.408 9.216-26.624 9.216-9.216 0-18.432-3.072-26.624-9.216-8.192-6.144-174.08-135.168-257.024-250.88-26.624-41.984-69.632-94.208-69.632-167.936 0-123.904 69.632-211.968 182.272-211.968 63.488 0 132.096 60.416 169.984 112.64 38.912-52.224 106.496-112.64 169.984-112.64 113.664 0 187.392 87.04 187.392 211.968 1.024 73.728-46.08 132.096-72.704 173.056z" fill="#F78885" p-id="3609"></path></svg>