<?xml version="1.0" standalone="no"?><!DOCTYPE svg PUBLIC "-//W3C//DTD SVG 1.1//EN" "http://www.w3.org/Graphics/SVG/1.1/DTD/svg11.dtd"><svg t="1593566159834" class="icon" viewBox="0 0 1024 1024" version="1.1" xmlns="http://www.w3.org/2000/svg" p-id="13061" xmlns:xlink="http://www.w3.org/1999/xlink" width="200" height="200"><defs><style type="text/css"></style></defs><path d="M0 512c0 282.76736 229.23264 512 512 512s512-229.23264 512-512S794.76736 0 512 0 0 229.23264 0 512z" fill="#EDEEF2" p-id="13062"></path><path d="M731.81184 768h-439.6032c-17.37728 0-29.80864-12.24704-29.80864-26.95168v-46.53056c0-44.07296 29.7984-83.2512 69.53984-100.39296a433.00864 433.00864 0 0 0 52.15232-19.58912 29.76768 29.76768 0 0 1 24.832 2.4576 205.96736 205.96736 0 0 0 203.66336 0 36.44416 36.44416 0 0 1 27.32032-2.4576c27.32032 12.24704 59.5968 24.48384 62.08512 26.95168a114.8928 114.8928 0 0 1 59.60704 93.04064v46.53056c0 14.6944-14.8992 26.94144-29.7984 26.94144zM552.83712 540.44672l-0.33792 0.13312c-1.8944 0.67584-3.7888 1.30048-5.6832 1.86368l-0.96256 0.3072c-1.71008 0.512-3.4304 0.96256-5.14048 1.3824-0.512 0.12288-0.98304 0.26624-1.46432 0.37888-1.57696 0.37888-3.15392 0.69632-4.74112 0.99328-0.60416 0.12288-1.21856 0.26624-1.82272 0.37888-1.49504 0.24576-2.99008 0.47104-4.49536 0.67584-0.67584 0.09216-1.36192 0.2048-2.048 0.28672-1.536 0.18432-3.06176 0.3072-4.56704 0.41984-0.63488 0.0512-1.26976 0.13312-1.90464 0.16384-2.1504 0.13312-4.3008 0.2048-6.43072 0.2048-4.12672 0-8.17152-0.22528-12.26752-0.5632-0.82944-0.06144-1.66912-0.11264-2.49856-0.2048a145.2032 145.2032 0 0 1-15.17568-2.34496c-1.49504-0.31744-2.9696-0.69632-4.4544-1.05472-58.5728-14.08-104.2432-64.48128-114.66752-142.76608a195.39968 195.39968 0 0 1-2.47808-39.17824C361.69728 292.95616 406.39488 204.8 513.19808 204.8c101.81632 0 146.5344 90.60352 146.5344 159.15008v12.25728c-3.95264 86.67136-52.96128 144.7936-106.89536 164.23936z" fill="#FFFFFF" p-id="13063"></path></svg>