<?xml version="1.0" standalone="no"?><!DOCTYPE svg PUBLIC "-//W3C//DTD SVG 1.1//EN" "http://www.w3.org/Graphics/SVG/1.1/DTD/svg11.dtd"><svg t="1593769334840" class="icon" viewBox="0 0 1024 1024" version="1.1" xmlns="http://www.w3.org/2000/svg" p-id="3999" xmlns:xlink="http://www.w3.org/1999/xlink" width="200" height="200"><defs><style type="text/css"></style></defs><path d="M934.2976 512c0-44.2368 26.88-83.1488 68.4544-99.1232l21.2992-8.192-5.632-22.0672a519.5776 519.5776 0 0 0-56.7808-137.1648l-11.6224-19.6096-20.8384 9.2672c-13.7216 6.144-28.5696 9.3184-43.6224 9.2672a104.96 104.96 0 0 1-74.8544-31.0272 105.5232 105.5232 0 0 1-21.6576-118.4768l9.2672-20.8896-19.6608-11.6224A522.3936 522.3936 0 0 0 641.4336 5.632l-22.016-5.632-8.192 21.248A105.8304 105.8304 0 0 1 512.0512 89.7536 105.6256 105.6256 0 0 1 412.928 21.2992L404.736 0l-22.0672 5.632C334.4896 17.92 288.3072 37.0176 245.5552 62.4128l-19.6096 11.6224 9.216 20.8384a105.6256 105.6256 0 0 1-21.6576 118.4768 106.752 106.752 0 0 1-118.528 21.76l-20.736-9.216-11.6736 19.5584a516.608 516.608 0 0 0-56.832 137.1648l-5.632 22.016 21.1968 8.192A105.8304 105.8304 0 0 1 89.8048 512c0 44.2368-26.88 83.1488-68.4544 99.1232l-21.2992 8.192 5.632 22.0672c12.288 48.2304 31.3856 94.4128 56.7296 137.1648l11.6736 19.6096 20.8384-9.2672c13.7216-6.144 28.5696-9.3184 43.6224-9.2672a104.96 104.96 0 0 1 74.8032 31.0272c31.3344 31.2832 39.8336 77.824 21.7088 118.4768l-9.3184 20.8384 19.6608 11.6736c42.8032 25.344 89.0368 44.4416 137.216 56.7296l22.0672 5.632 8.192-21.248A105.8816 105.8816 0 0 1 512.0512 934.2464c44.2368 0 83.1488 26.88 99.1232 68.4544l8.192 21.2992 22.0672-5.632c48.2304-12.288 94.4128-31.3856 137.1648-56.7296l19.6096-11.6736-9.2672-20.8384a105.6256 105.6256 0 0 1 21.6576-118.4768 106.9568 106.9568 0 0 1 118.528-21.76l20.7872 9.216 11.6224-19.5584c25.4464-42.752 44.6464-88.9344 56.832-137.1648l5.632-22.0672-21.248-8.192A105.6256 105.6256 0 0 1 934.2976 512z m-6.5024 222.1056a158.0544 158.0544 0 0 0-42.24-5.7344 156.16 156.16 0 0 0-111.2064 46.0288 156.2624 156.2624 0 0 0-40.2944 153.4464 469.7088 469.7088 0 0 1-84.992 35.1744A156.2112 156.2112 0 0 0 512.0512 882.9952c-57.6512 0-109.2096 30.72-136.96 80.0256a470.272 470.272 0 0 1-85.1968-35.2256 158.5152 158.5152 0 0 0-40.2432-153.3952 157.7984 157.7984 0 0 0-153.4464-40.3456 468.5824 468.5824 0 0 1-35.1744-85.0432A156.2624 156.2624 0 0 0 141.1072 512c0-57.6512-30.7712-109.2096-80.0768-136.96a465.152 465.152 0 0 1 35.328-85.1456c13.7216 3.84 27.904 5.7344 42.1888 5.7344a156.16 156.16 0 0 0 111.2064-46.0288 156.2112 156.2112 0 0 0 40.2944-153.4464 468.48 468.48 0 0 1 84.992-35.1744A156.2112 156.2112 0 0 0 512.0512 141.056c57.6512 0 109.2096-30.7712 136.96-80.0768a470.7328 470.7328 0 0 1 85.1968 35.2256 158.5152 158.5152 0 0 0 40.192 153.3952 157.7472 157.7472 0 0 0 153.4464 40.3456c14.5408 27.136 26.3168 55.6032 35.2256 85.0432A156.16 156.16 0 0 0 883.0464 512c0 57.7536 30.72 109.312 80.0256 137.0112a465.92 465.92 0 0 1-35.328 85.0944z" fill="#ffffff" p-id="4000"></path><path d="M512.0512 358.4c-84.6848 0-153.6 68.9152-153.6 153.6s68.9152 153.6 153.6 153.6 153.6-68.9152 153.6-153.6-68.9152-153.6-153.6-153.6z m0 257.28A103.8336 103.8336 0 0 1 408.3712 512c0-57.1904 46.4896-103.68 103.68-103.68s103.68 46.4896 103.68 103.68A103.8336 103.8336 0 0 1 512.0512 615.68z" fill="#ffffff" p-id="4001"></path></svg>