<?xml version="1.0" standalone="no"?><!DOCTYPE svg PUBLIC "-//W3C//DTD SVG 1.1//EN" "http://www.w3.org/Graphics/SVG/1.1/DTD/svg11.dtd"><svg t="1593566124480" class="icon" viewBox="0 0 1024 1024" version="1.1" xmlns="http://www.w3.org/2000/svg" p-id="12099" xmlns:xlink="http://www.w3.org/1999/xlink" width="200" height="200"><defs><style type="text/css"></style></defs><path d="M754.44 206.395c-21.14 0-38.28 17.14-38.28 38.28s17.14 38.28 38.28 38.28c49.251 0 89.32 40.068 89.32 89.32v421.08c0 49.252-40.069 89.32-89.32 89.32H269.56c-49.252 0-89.321-40.068-89.321-89.32v-421.08c0-49.252 40.069-89.32 89.32-89.32 21.14 0 38.28-17.141 38.28-38.28s-17.14-38.28-38.28-38.28c-91.469 0-165.88 74.41-165.88 165.88v421.08c0 91.47 74.411 165.88 165.88 165.88h484.88c91.47 0 165.88-74.41 165.88-165.88v-421.08c0-91.47-74.41-165.88-165.88-165.88z" fill="#FF7E8D" p-id="12100"></path><path d="M474.356 206.395c-21.14 0-38.28 17.14-38.28 38.28s17.14 38.28 38.28 38.28h75.288c21.14 0 38.28-17.141 38.28-38.28s-17.14-38.28-38.28-38.28h-75.288z" fill="#FF7E8D" p-id="12101"></path><path d="M358.967 348.699c21.14 0 38.28-17.14 38.28-38.28 0-91.657 52.547-169.095 114.752-169.095 62.199 0 114.746 77.438 114.746 169.095 0 21.14 17.14 38.28 38.28 38.28s38.28-17.14 38.28-38.28c0-135.457-85.819-245.655-191.307-245.655S320.685 174.963 320.685 310.419c0.002 21.14 17.142 38.28 38.282 38.28z" fill="#FF7E8D" p-id="12102"></path></svg>