<?xml version="1.0" standalone="no"?><!DOCTYPE svg PUBLIC "-//W3C//DTD SVG 1.1//EN" "http://www.w3.org/Graphics/SVG/1.1/DTD/svg11.dtd"><svg t="1592661887901" class="icon" viewBox="0 0 1024 1024" version="1.1" xmlns="http://www.w3.org/2000/svg" p-id="5082" xmlns:xlink="http://www.w3.org/1999/xlink" width="200" height="200"><defs><style type="text/css"></style></defs><path d="M429.056 161.493333a140.288 140.288 0 1 1-280.618667 0 140.288 140.288 0 0 1 280.618667 0" fill="#ff8198" opacity=".7" p-id="5083"></path><path d="M130.261333 978.56h757.418667v-157.525333H130.261333z" fill="#ff8198" opacity=".7" p-id="5084"></path><path d="M668.757333 402.944h16.213334a30.293333 30.293333 0 0 1 30.293333 30.122667 123.562667 123.562667 0 0 0 123.221333 122.453333 123.52 123.52 0 0 0 123.264-122.453333c0-1.194667 0.085333-2.346667 0.213334-3.498667a31.061333 31.061333 0 0 1-0.341334-3.413333c-0.853333-17.493333-7.381333-28.714667-18.218666-47.317334a422.997333 422.997333 0 0 1-20.778667-38.997333L781.184 60.586667H225.450667L96.298667 342.784c-5.802667 15.914667-12.885333 29.056-19.157334 40.704-9.386667 17.408-16.128 29.994667-16.469333 46.08l-0.042667 4.266667a123.562667 123.562667 0 0 0 123.221334 121.728 123.562667 123.562667 0 0 0 123.264-122.496 30.293333 30.293333 0 0 1 30.293333-30.122667h24.277333a30.293333 30.293333 0 0 1 30.293334 30.122667 123.562667 123.562667 0 0 0 123.264 122.453333 123.52 123.52 0 0 0 123.221333-122.453333 30.293333 30.293333 0 0 1 30.293333-30.122667m169.728 213.205333a184.234667 184.234667 0 0 1-161.621333-96.469333 184.234667 184.234667 0 0 1-161.621333 96.426667 184.32 184.32 0 0 1-165.717334-104.32A184.32 184.32 0 0 1 183.893333 616.106667 184.32 184.32 0 0 1 0 436.010667v-2.986667l0.042667-0.981333 0.042666-3.498667c0.682667-30.933333 12.373333-52.693333 23.68-73.728 5.973333-11.093333 11.52-21.504 15.914667-33.706667a28.032 28.032 0 0 1 0.981333-2.389333L178.474667 17.706667A30.293333 30.293333 0 0 1 205.994667 0h593.834666a30.293333 30.293333 0 0 1 27.008 16.64l150.101334 296.362667a24.661333 24.661333 0 0 1 0.554666 1.109333c6.058667 13.312 12.245333 23.936 18.261334 34.218667 12.757333 21.888 24.832 42.581333 26.368 74.922666 0.085333 1.749333 0 3.456-0.170667 5.12 0.256 1.664 0.426667 3.328 0.384 5.034667a184.277333 184.277333 0 0 1-183.850667 182.741333M884.650667 1011.882667H145.408a30.293333 30.293333 0 0 1-30.165333-27.904l-24.277334-302.933334a30.293333 30.293333 0 1 1 60.416-4.821333l22.016 275.072h683.264l22.016-275.072a30.293333 30.293333 0 0 1 60.416 4.821333l-24.234666 302.933334a30.293333 30.293333 0 0 1-30.208 27.904" fill="#ff8198" opacity=".7" p-id="5085"></path></svg>