<?xml version="1.0" standalone="no"?><!DOCTYPE svg PUBLIC "-//W3C//DTD SVG 1.1//EN" "http://www.w3.org/Graphics/SVG/1.1/DTD/svg11.dtd"><svg t="1593583532215" class="icon" viewBox="0 0 1024 1024" version="1.1" xmlns="http://www.w3.org/2000/svg" p-id="8582" xmlns:xlink="http://www.w3.org/1999/xlink" width="200" height="200"><defs><style type="text/css"></style></defs><path d="M983.21408 40.96C680.5504 187.22816 485.9904 631.47008 485.9904 631.47008L367.104 414.7712 123.904 550.1952C226.59072 582.7072 377.91744 696.48384 502.21056 842.752 588.6976 691.05664 864.31744 371.42528 999.424 344.34048 945.37728 235.99104 977.80736 143.89248 983.21408 40.96z" fill="#67C23A" p-id="8583"></path><path d="M515.584 8.704c47.94368 0 95.0272 6.656 140.25728 19.6608a32.256 32.256 0 0 1-17.8176 62.0032A442.624 442.624 0 0 0 515.584 73.216c-244.31616 0-442.368 198.05184-442.368 442.368s198.05184 442.368 442.368 442.368c207.104 0 385.19808-143.49312 431.08352-342.60992a443.84256 443.84256 0 0 0 11.28448-99.75808 32.256 32.256 0 1 1 64.512 0c0 38.8096-4.36224 77.056-12.93312 114.24768C956.928 858.08128 752.90624 1022.464 515.584 1022.464c-279.94112 0-506.88-226.93888-506.88-506.88S235.64288 8.704 515.584 8.704z" fill="#67C23A" p-id="8584"></path></svg>