<?xml version="1.0" standalone="no"?><!DOCTYPE svg PUBLIC "-//W3C//DTD SVG 1.1//EN" "http://www.w3.org/Graphics/SVG/1.1/DTD/svg11.dtd"><svg t="1591533861136" class="icon" viewBox="0 0 1024 1024" version="1.1" xmlns="http://www.w3.org/2000/svg" p-id="3137" xmlns:xlink="http://www.w3.org/1999/xlink" width="200" height="200"><defs><style type="text/css"></style></defs><path d="M568.32 138.24c-20.48 12.8-35.84 25.6-51.2 40.96-35.84 33.28-64 71.68-89.6 110.08-40.96 71.68-64 143.36-58.88 222.72 0 5.12-2.56 7.68-5.12 10.24-23.04 15.36-46.08 28.16-66.56 43.52-35.84 28.16-46.08 61.44-35.84 102.4 5.12 20.48 12.8 40.96 17.92 64l15.36 53.76c-25.6 17.92-66.56 7.68-74.24-20.48-5.12-20.48-10.24-38.4-15.36-58.88-5.12-20.48-12.8-40.96-17.92-64-10.24-38.4 0-74.24 35.84-102.4 20.48-15.36 43.52-28.16 66.56-43.52 5.12-2.56 7.68-5.12 5.12-10.24-5.12-79.36 17.92-151.04 58.88-222.72 23.04-40.96 53.76-76.8 89.6-110.08 17.92-17.92 35.84-33.28 61.44-46.08 12.8-7.68 12.8-7.68 25.6 0s23.04 15.36 33.28 23.04c0 2.56 2.56 5.12 5.12 7.68z m215.04 652.8c-15.36 5.12-33.28 2.56-46.08-5.12-17.92-10.24-35.84-23.04-51.2-35.84 2.56 0 2.56-2.56 5.12-2.56 15.36-10.24 15.36-10.24 30.72 2.56 20.48 12.8 40.96 25.6 61.44 40.96zM486.4 747.52c-5.12 0-10.24-2.56-15.36-2.56-2.56 0-7.68-2.56-10.24-2.56 5.12-5.12 10.24-5.12 15.36 0 5.12 2.56 7.68 5.12 10.24 5.12z" fill="#ff8198" p-id="3138"></path><path d="M839.68 583.68c5.12 15.36 7.68 30.72 2.56 48.64-10.24 43.52-20.48 87.04-33.28 130.56-7.68 28.16-46.08 38.4-74.24 20.48l-92.16-61.44c-15.36-10.24-15.36-10.24-30.72-2.56-40.96 25.6-89.6 35.84-140.8 25.6-25.6-5.12-48.64-15.36-71.68-28.16-5.12-5.12-10.24-2.56-15.36 0-30.72 23.04-64 43.52-94.72 66.56-25.6 17.92-66.56 7.68-74.24-20.48-5.12-20.48-10.24-38.4-15.36-58.88-5.12-20.48-12.8-40.96-17.92-64-5.12-20.48-5.12-38.4 2.56-56.32 5.12 17.92 10.24 38.4 15.36 56.32 5.12 20.48 10.24 38.4 15.36 58.88 7.68 28.16 46.08 38.4 74.24 20.48 33.28-23.04 64-43.52 94.72-66.56 5.12-5.12 10.24-5.12 15.36 0 20.48 12.8 43.52 23.04 71.68 28.16 51.2 10.24 97.28 0 140.8-25.6 15.36-10.24 15.36-10.24 30.72 2.56l92.16 61.44c28.16 17.92 66.56 7.68 74.24-20.48l30.72-115.2z" fill="#ff8198" p-id="3139"></path><path d="M261.12 819.2c-7.68 0-17.92-2.56-25.6-5.12-20.48-7.68-35.84-23.04-43.52-43.52-5.12-12.8-7.68-25.6-10.24-40.96l-23.04-81.92c-12.8-48.64 2.56-94.72 43.52-128 15.36-12.8 33.28-23.04 51.2-33.28 5.12-2.56 7.68-5.12 12.8-7.68-2.56-76.8 17.92-151.04 64-227.84 25.6-40.96 56.32-81.92 92.16-115.2 15.36-15.36 38.4-35.84 66.56-51.2 20.48-10.24 30.72-10.24 51.2 0 12.8 7.68 25.6 15.36 38.4 25.6 51.2 43.52 94.72 94.72 128 153.6 38.4 69.12 56.32 140.8 53.76 212.48 7.68 5.12 15.36 10.24 20.48 15.36 7.68 5.12 17.92 12.8 25.6 17.92 51.2 33.28 71.68 76.8 61.44 128-7.68 38.4-17.92 74.24-28.16 112.64l-5.12 20.48c-5.12 20.48-20.48 35.84-40.96 43.52-23.04 7.68-51.2 5.12-71.68-7.68-30.72-20.48-61.44-40.96-92.16-64 0 0-2.56 0-2.56-2.56C578.56 768 524.8 778.24 468.48 768c-25.6-5.12-48.64-12.8-71.68-28.16-30.72 20.48-58.88 40.96-89.6 61.44-15.36 12.8-30.72 17.92-46.08 17.92z m253.44-688.64c-2.56 0-2.56 0 0 0-23.04 12.8-40.96 30.72-56.32 43.52-33.28 33.28-61.44 69.12-84.48 104.96-43.52 71.68-61.44 138.24-56.32 207.36 0 10.24-2.56 23.04-17.92 33.28-5.12 5.12-12.8 7.68-17.92 12.8l-46.08 30.72c-25.6 20.48-35.84 46.08-28.16 74.24l23.04 81.92c2.56 12.8 7.68 25.6 10.24 38.4 2.56 5.12 7.68 7.68 10.24 10.24 5.12 2.56 15.36 2.56 25.6-2.56 33.28-23.04 64-43.52 94.72-66.56 15.36-10.24 30.72-10.24 43.52 0 20.48 12.8 38.4 20.48 61.44 25.6 43.52 7.68 84.48 0 122.88-23.04 23.04-15.36 35.84-15.36 56.32 0 30.72 23.04 61.44 43.52 92.16 64 7.68 5.12 17.92 5.12 25.6 2.56 2.56 0 7.68-2.56 10.24-7.68l5.12-20.48c10.24-35.84 20.48-71.68 28.16-110.08 5.12-17.92 5.12-48.64-38.4-74.24-10.24-5.12-17.92-12.8-28.16-17.92-7.68-5.12-17.92-10.24-25.6-17.92-17.92-12.8-20.48-28.16-20.48-35.84 2.56-64-12.8-128-46.08-192-30.72-53.76-69.12-99.84-115.2-140.8-7.68-7.68-17.92-15.36-28.16-20.48z" fill="#ff8198" p-id="3140"></path><path d="M471.04 445.44c-35.84 15.36-61.44 51.2-61.44 92.16 0 56.32 46.08 102.4 102.4 102.4 40.96 0 76.8-25.6 92.16-61.44-12.8 7.68-25.6 10.24-40.96 10.24-56.32 0-102.4-46.08-102.4-102.4 0-15.36 2.56-28.16 10.24-40.96z" fill="#ff8198" p-id="3141"></path><path d="M512 665.6c-71.68 0-128-56.32-128-128s56.32-128 128-128 128 56.32 128 128-56.32 128-128 128z m0-204.8c-43.52 0-76.8 33.28-76.8 76.8s33.28 76.8 76.8 76.8 76.8-33.28 76.8-76.8-33.28-76.8-76.8-76.8z m0 512c-15.36 0-25.6-10.24-25.6-25.6V844.8c0-15.36 10.24-25.6 25.6-25.6s25.6 10.24 25.6 25.6v102.4c0 15.36-10.24 25.6-25.6 25.6zM614.4 896c-15.36 0-25.6-10.24-25.6-25.6v-51.2c0-15.36 10.24-25.6 25.6-25.6s25.6 10.24 25.6 25.6v51.2c0 15.36-10.24 25.6-25.6 25.6z m-204.8 0c-15.36 0-25.6-10.24-25.6-25.6v-51.2c0-15.36 10.24-25.6 25.6-25.6s25.6 10.24 25.6 25.6v51.2c0 15.36-10.24 25.6-25.6 25.6z" fill="#ff8198" p-id="3142"></path></svg>