<?xml version="1.0" standalone="no"?><!DOCTYPE svg PUBLIC "-//W3C//DTD SVG 1.1//EN" "http://www.w3.org/Graphics/SVG/1.1/DTD/svg11.dtd"><svg t="1593757291331" class="icon" viewBox="0 0 1024 1024" version="1.1" xmlns="http://www.w3.org/2000/svg" p-id="3742" xmlns:xlink="http://www.w3.org/1999/xlink" width="200" height="200"><defs><style type="text/css"></style></defs><path d="M315.164444 170.666667c-51.484444 0-100.579556 21.048889-138.353777 59.164444A220.103111 220.103111 0 0 0 113.777778 386.275556c0.512 64.853333 28.216889 125.326222 75.776 165.546666 2.616889 2.275556 6.087111 5.176889 9.728 8.533334 13.084444 11.832889 48.753778 44.373333 93.752889 85.504l6.371555 5.859555C365.226667 712.021333 461.368889 799.857778 512 845.312c32.426667-29.184 84.195556-76.515556 138.410667-126.122667l6.599111-5.973333 21.845333-19.968c60.074667-54.954667 116.906667-106.837333 152.632889-138.808889l0.739556-0.682667 0.796444-0.682666c48.867556-40.675556 76.970667-101.717333 77.198222-167.367111 0.056889-30.151111-5.688889-59.278222-16.952889-86.641778a215.779556 215.779556 0 0 0-46.250666-69.632A194.161778 194.161778 0 0 0 708.721778 170.666667c-58.709333 0-114.346667 27.136-152.576 74.353777l-44.202667 54.613334-44.259555-54.613334C429.397333 197.802667 373.816889 170.666667 315.164444 170.666667m0-56.888889C391.395556 113.777778 462.677333 148.48 512 209.237333 561.152 148.48 632.547556 113.777778 708.721778 113.777778c66.844444 0 130.275556 26.851556 178.631111 75.548444 25.031111 25.144889 44.657778 54.784 58.424889 87.893334 14.222222 34.360889 21.447111 70.883556 21.333333 108.657777-0.284444 82.545778-35.896889 159.459556-97.678222 210.887111-39.936 35.783111-108.088889 98.133333-174.08 158.435556-67.128889 61.44-130.56 119.352889-161.223111 146.659556a33.223111 33.223111 0 0 1-44.259556 0 32762.88 32762.88 0 0 1-228.864-208.213334c-48.526222-44.373333-86.869333-79.36-100.124444-91.249778a200.305778 200.305778 0 0 0-7.907556-6.940444C92.558222 544.256 57.514667 468.252444 56.888889 386.730667a276.48 276.48 0 0 1 79.473778-196.835556C184.888889 140.743111 248.376889 113.777778 315.164444 113.777778z" fill="#707070" opacity=".65" p-id="3743"></path></svg>