<?xml version="1.0" standalone="no"?><!DOCTYPE svg PUBLIC "-//W3C//DTD SVG 1.1//EN" "http://www.w3.org/Graphics/SVG/1.1/DTD/svg11.dtd"><svg t="1593567233892" class="icon" viewBox="0 0 1024 1024" version="1.1" xmlns="http://www.w3.org/2000/svg" p-id="3878" xmlns:xlink="http://www.w3.org/1999/xlink" width="200" height="200"><defs><style type="text/css"></style></defs><path d="M510.748444 42.268444a469.731556 469.731556 0 1 1 0 939.463112 469.731556 469.731556 0 0 1 0-939.463112z m0 45.511112a424.220444 424.220444 0 1 0 0 848.440888 424.220444 424.220444 0 0 0 0-848.440888z m0 140.743111c30.947556 0 56.376889 23.381333 59.619556 53.475555l0.341333 6.542222v264.817778c0 26.680889-17.294222 49.208889-41.358222 57.059556a75.093333 75.093333 0 1 1-37.262222-0.113778 59.790222 59.790222 0 0 1-40.96-49.777778l-0.398222-7.168V288.540444c0-33.166222 26.851556-60.017778 60.017777-60.017777z m0 424.96a29.582222 29.582222 0 1 0 0 59.221333 29.582222 29.582222 0 0 0 0-59.164444z m0-379.448889a14.506667 14.506667 0 0 0-14.108444 11.150222l-0.398222 3.356444v264.817778a14.506667 14.506667 0 0 0 28.615111 3.356445l0.341333-3.356445V288.540444a14.506667 14.506667 0 0 0-14.449778-14.506666z" fill="#ff8198" fill-opacity=".499" p-id="3879"></path></svg>