<?xml version="1.0" standalone="no"?><!DOCTYPE svg PUBLIC "-//W3C//DTD SVG 1.1//EN" "http://www.w3.org/Graphics/SVG/1.1/DTD/svg11.dtd"><svg t="1592130238521" class="icon" viewBox="0 0 1024 1024" version="1.1" xmlns="http://www.w3.org/2000/svg" p-id="2892" xmlns:xlink="http://www.w3.org/1999/xlink" width="200" height="200"><defs><style type="text/css"></style></defs><path d="M512 0a512 512 0 1 0 512 512A512 512 0 0 0 512 0z m0 954.289231A442.289231 442.289231 0 1 1 954.289231 512 443.076923 443.076923 0 0 1 512 954.289231z m0 0" fill="#ff5777" p-id="2893"></path><path d="M734.129231 362.338462l-271.36 271.753846L315.076923 484.430769a35.052308 35.052308 0 1 0-51.2 49.624616L437.956923 708.923077a35.052308 35.052308 0 0 0 49.230769 0l296.172308-296.172308a35.052308 35.052308 0 1 0-49.230769-50.412307z m0 0" fill="#ff5777" p-id="2894"></path></svg>