<?xml version="1.0" standalone="no"?><!DOCTYPE svg PUBLIC "-//W3C//DTD SVG 1.1//EN" "http://www.w3.org/Graphics/SVG/1.1/DTD/svg11.dtd"><svg t="1593756950792" class="icon" viewBox="0 0 1024 1024" version="1.1" xmlns="http://www.w3.org/2000/svg" p-id="3743" xmlns:xlink="http://www.w3.org/1999/xlink" width="200" height="200"><defs><style type="text/css"></style></defs><path d="M375.874783 563.2a26.37913 26.37913 0 1 0 0 52.802783h109.679304v68.251826c0 14.60313 11.798261 26.445913 26.334609 26.445913s26.312348-11.842783 26.312347-26.445913v-68.251826h109.657044a26.37913 26.37913 0 0 0 0-52.802783h-109.657044v-56.987826h109.657044a26.35687 26.35687 0 0 0 25.444174-26.379131c0-14.246957-11.264-25.933913-25.444174-26.401391h-95.877565l112.996174-97.613913a26.267826 26.267826 0 0 0 2.715826-37.153391c-9.015652-10.551652-26.468174-11.865043-37.019826-2.738087l-118.873044 102.622609-118.784-102.622609a27.091478 27.091478 0 0 0-37.086609 2.738087 26.223304 26.223304 0 0 0-6.322086 19.144348c0.489739 6.989913 3.762087 13.490087 9.060173 18.031304l112.996174 97.613913h-95.833043a26.37913 26.37913 0 0 0 0 52.802783h109.679304v56.987826h-109.634782V563.2z" fill="#FF5F86" p-id="3744"></path><path d="M929.970087 441.922783c14.514087 0 26.312348-11.887304 26.312348-26.445913v-187.058087A72.570435 72.570435 0 0 0 934.956522 177.552696a72.258783 72.258783 0 0 0-50.665739-21.370435H139.464348c-18.69913 0-37.242435 7.746783-50.821565 21.303652-0.578783 0.578783-1.068522 1.179826-1.51374 1.669565a71.68 71.68 0 0 0-19.678608 49.218783v187.080348c0 14.58087 11.798261 26.445913 26.356869 26.445913a75.865043 75.865043 0 0 1 54.049392 22.305391 76.510609 76.510609 0 0 1 22.305391 54.249739c0 20.324174-8.013913 39.846957-22.349913 54.205218a75.976348 75.976348 0 0 1-54.00487 22.327652c-14.536348 0-26.334609 11.820522-26.356869 26.423652v170.362435c0 19.077565 7.524174 37.13113 20.702608 50.309565l0.779131 0.868174a71.234783 71.234783 0 0 0 50.509913 20.947478h62.152348a26.334609 26.334609 0 0 0 25.421913-26.356869c0-14.246957-11.241739-25.911652-25.421913-26.379131h-62.107826a19.72313 19.72313 0 0 1-13.289739-5.275826l-0.445218-0.489739a19.322435 19.322435 0 0 1-5.587478-13.623652v-146.699131a128.445217 128.445217 0 0 0 64.801391-35.172174l0.556522-0.667826a128.089043 128.089043 0 0 0 37.353739-90.824348 127.421217 127.421217 0 0 0-37.309217-90.690782l-0.601044-0.779131a129.068522 129.068522 0 0 0-64.801391-35.216695V228.396522c0-5.943652 2.738087-10.329043 4.763826-12.688696l0.934957-0.890435a19.233391 19.233391 0 0 1 13.601391-5.787826h744.848695c4.85287 0 9.772522 2.137043 13.423305 5.87687 3.784348 3.762087 5.87687 8.592696 5.876869 13.490087v163.350261a129.335652 129.335652 0 0 0-64.845913 35.216695l-0.756869 0.823652a128.734609 128.734609 0 0 0-37.019826 90.668522c0 34.125913 13.133913 66.226087 36.953043 90.490435l0.823652 0.979478c17.741913 17.808696 40.292174 30.052174 64.845913 35.172174v146.699131a19.322435 19.322435 0 0 1-5.765565 13.534608 19.522783 19.522783 0 0 1-13.556869 5.854609H321.446957a26.245565 26.245565 0 0 0-23.485218 12.933565 26.490435 26.490435 0 0 0 0 26.891131c4.897391 8.281043 13.890783 13.245217 23.485218 12.911304h562.888347a71.68 71.68 0 0 0 50.754783-21.214609c13.490087-13.57913 21.25913-32.166957 21.25913-50.910608v-170.362435c-0.022261-14.60313-11.798261-26.423652-26.334608-26.423652-20.257391 0-39.713391-8.013913-54.093913-22.305392a76.8 76.8 0 0 1-22.283131-54.227478c0-20.457739 7.902609-39.713391 22.238609-54.227478a76.421565 76.421565 0 0 1 54.093913-22.305392z" fill="#FF5F86" p-id="3745"></path></svg>