<?xml version="1.0" standalone="no"?><!DOCTYPE svg PUBLIC "-//W3C//DTD SVG 1.1//EN" "http://www.w3.org/Graphics/SVG/1.1/DTD/svg11.dtd"><svg t="1593756955664" class="icon" viewBox="0 0 1024 1024" version="1.1" xmlns="http://www.w3.org/2000/svg" p-id="3878" xmlns:xlink="http://www.w3.org/1999/xlink" width="200" height="200"><defs><style type="text/css"></style></defs><path d="M815.786667 368.981333c12.970667 22.869333 0 31.744-2.730667 34.133334a23.210667 23.210667 0 0 1-34.133333-10.581334c12.629333 4.096 40.277333-2.048 36.864-23.552z m-92.842667-97.621333c13.312 25.941333 7.168 44.032-4.778667 51.882667s-37.546667-4.096-43.349333-14.677334a37.205333 37.205333 0 0 0 48.128-37.205333z m-134.144-94.549333c30.378667 59.050667 34.133333 77.141333 6.826667 94.549333a76.117333 76.117333 0 0 1-96.256-15.018667 72.362667 72.362667 0 0 0 89.429333-79.530666z m-210.261333-21.504c14.677333 136.533333-94.890667 131.754667-153.6 117.077333 37.546667 87.381333 248.832 55.978667 153.6-117.077333z m79.189333 309.930666c24.917333 32.426667-11.946667 48.469333-21.504 68.266667s24.917333 68.266667-34.133333 75.776c-38.570667 4.778667-49.493333-45.397333-37.205334-95.232s67.925333-81.237333 92.842667-48.810667z m214.698667-2.389333c192.853333 224.938667-147.456 617.472-343.381334 426.666667 158.378667 11.264 387.754667-157.696 343.381334-426.666667z" fill="#FFCCCC" p-id="3879"></path><path d="M798.037333 400.725333a21.162667 21.162667 0 1 0-20.48-21.162666 20.821333 20.821333 0 0 0 20.48 21.162666z m-102.4-83.968a30.378667 30.378667 0 1 0-29.696-30.378666 30.037333 30.037333 0 0 0 30.72 30.378666z m-155.989333-46.421333a58.368 58.368 0 1 0-57.344-58.368 58.026667 58.026667 0 0 0 57.344 58.368zM299.690667 307.2A95.573333 95.573333 0 1 0 204.8 211.968 94.890667 94.890667 0 0 0 299.690667 307.2z m512 216.064a37.205333 37.205333 0 1 1 36.864-37.205333 37.205333 37.205333 0 0 1-36.181334 37.546666z m-14.336-88.064A55.978667 55.978667 0 1 1 853.333333 379.562667a55.637333 55.637333 0 0 1-55.296 55.978666z m-102.4-83.968a65.194667 65.194667 0 1 1 66.218666-64.853333 64.853333 64.853333 0 0 1-64.512 65.536z m-155.306667-46.08a93.184 93.184 0 1 1 92.16-93.184 92.842667 92.842667 0 0 1-92.16 93.184zM299.690667 341.333333a130.389333 130.389333 0 1 1 129.024-130.389333A129.706667 129.706667 0 0 1 299.690667 341.333333z m119.808 119.125334a17.408 17.408 0 1 1 9.557333 34.133333 49.834667 49.834667 0 0 0-22.869333 68.266667 17.408 17.408 0 1 1-30.72 17.408 84.309333 84.309333 0 0 1 44.032-118.784zM483.669333 375.466667c-204.8 0-271.018667 136.533333-143.36 256.341333l23.893334 22.528-20.821334 25.258667C273.066667 767.317333 280.917333 853.333333 348.501333 897.706667s176.469333 27.989333 260.096-65.877334C789.162667 628.736 705.877333 375.466667 483.669333 375.466667z m0-34.133334c245.077333 0 357.034667 281.6 150.528 512s-501.418667 24.917333-317.781333-196.608C170.666667 521.557333 238.933333 341.333333 483.669333 341.333333z" fill="#E53939" p-id="3880"></path></svg>