<?xml version="1.0" standalone="no"?><!DOCTYPE svg PUBLIC "-//W3C//DTD SVG 1.1//EN" "http://www.w3.org/Graphics/SVG/1.1/DTD/svg11.dtd"><svg t="1593566112691" class="icon" viewBox="0 0 1024 1024" version="1.1" xmlns="http://www.w3.org/2000/svg" p-id="11825" xmlns:xlink="http://www.w3.org/1999/xlink" width="200" height="200"><defs><style type="text/css"></style></defs><path d="M720.2 63H303.8c-38.5 0-69.8 31.3-69.8 69.8v758.4c0 38.5 31.3 69.8 69.8 69.8h416.4c38.5 0 69.8-31.3 69.8-69.8V132.8c0-38.5-31.3-69.8-69.8-69.8z m-416.4 56.1h416.4c7.5 0 13.7 6.1 13.7 13.7v592.4H290.1V132.8c0-7.5 6.2-13.7 13.7-13.7z m416.4 785.8H303.8c-7.5 0-13.7-6.1-13.7-13.7V764.5h443.7v126.7c0.1 7.5-6.1 13.7-13.6 13.7z" fill="#ff8198" p-id="11826"></path><path d="M512 835.8m-50.4 0a50.4 50.4 0 1 0 100.8 0 50.4 50.4 0 1 0-100.8 0Z" fill="#ff8198" p-id="11827"></path><path d="M398.5 194.7h226.9c10.9 0 19.6-8.8 19.6-19.6s-8.8-19.6-19.6-19.6H398.5c-10.9 0-19.6 8.8-19.6 19.6s8.8 19.6 19.6 19.6z" fill="#ff8198" p-id="11828"></path></svg>