<?xml version="1.0" standalone="no"?><!DOCTYPE svg PUBLIC "-//W3C//DTD SVG 1.1//EN" "http://www.w3.org/Graphics/SVG/1.1/DTD/svg11.dtd"><svg t="1593762646876" class="icon" viewBox="0 0 1029 1024" version="1.1" xmlns="http://www.w3.org/2000/svg" p-id="18902" xmlns:xlink="http://www.w3.org/1999/xlink" width="200.9765625" height="200"><defs><style type="text/css"></style></defs><path d="M885.268817 1023.431427H142.143887a142.143254 142.143254 0 0 1-142.143254-142.143254v-739.144919a142.143254 142.143254 0 0 1 142.143254-142.143254h312.715158a36.957246 36.957246 0 1 1 0 73.914492h-312.715158A67.944475 67.944475 0 0 0 74.199411 141.858967v739.14492a67.944475 67.944475 0 0 0 67.944476 67.660189h743.409217a67.944475 67.944475 0 0 0 67.660188-67.660189V564.87729a36.957246 36.957246 0 1 1 73.914492 0v316.979456a142.143254 142.143254 0 0 1-142.143253 142.143254" fill="#ff8198" p-id="18903"></path><path d="M343.134447 711.569128a36.957246 36.957246 0 0 1-36.104386-44.632981l53.161577-250.456414a36.957246 36.957246 0 0 1 9.950028-18.478623L721.804075 46.907274a125.938923 125.938923 0 0 1 175.120489-3.411438l82.158801 75.904497a118.83176 118.83176 0 0 1 3.695724 170.571905l-358.200999 360.759578a36.672959 36.672959 0 0 1-19.331483 10.234314l-255.857856 48.612993h-6.822877m87.560245-264.670739l-39.231538 184.217657 189.334814-36.104386L930.470372 240.506385a44.917268 44.917268 0 0 0 0-64.533037l-82.158801-75.904497a52.308717 52.308717 0 0 0-72.777346 0z" fill="#ff8198" p-id="18904"></path></svg>