<?xml version="1.0" standalone="no"?><!DOCTYPE svg PUBLIC "-//W3C//DTD SVG 1.1//EN" "http://www.w3.org/Graphics/SVG/1.1/DTD/svg11.dtd"><svg t="1593762630324" class="icon" viewBox="0 0 1025 1024" version="1.1" xmlns="http://www.w3.org/2000/svg" p-id="18356" xmlns:xlink="http://www.w3.org/1999/xlink" width="200.1953125" height="200"><defs><style type="text/css"></style></defs><path d="M697.834017 697.83325c-102.757863 0-186.088867-83.331003-186.088867-186.088867 0-102.757863 83.331003-186.088867 186.088867-186.088866h325.655517v-209.605592c0-63.904144-52.145781-116.049925-116.049925-116.049925H116.050692C52.146548 0.511233 0.000767 52.657014 0.000767 116.561158v791.388917c0 63.904144 52.145781 116.049925 116.049925 116.049925h791.388917c63.904144 0 116.049925-52.145781 116.049925-116.049925v-209.605592h-325.655517z" fill="#ff8198" p-id="18357" data-spm-anchor-id="a313x.7781069.0.i24" class="selected"></path><path d="M697.834017 387.514728c-68.505242 0-124.740889 55.724413-124.740889 124.740889 0 68.505242 55.724413 124.740889 124.740889 124.740888h325.655517V387.514728h-325.655517z m14.314528 171.774338c-26.072891 0-47.544683-21.471792-47.544683-47.544683s21.471792-47.544683 47.544683-47.544683 47.544683 21.471792 47.544683 47.544683-20.960559 47.544683-47.544683 47.544683z" fill="#ff8198" p-id="18358" data-spm-anchor-id="a313x.7781069.0.i26" class="selected"></path></svg>