<?xml version="1.0" standalone="no"?><!DOCTYPE svg PUBLIC "-//W3C//DTD SVG 1.1//EN" "http://www.w3.org/Graphics/SVG/1.1/DTD/svg11.dtd"><svg t="1593762531896" class="icon" viewBox="0 0 1095 1024" version="1.1" xmlns="http://www.w3.org/2000/svg" p-id="17391" data-spm-anchor-id="a313x.7781069.0.i18" xmlns:xlink="http://www.w3.org/1999/xlink" width="213.8671875" height="200"><defs><style type="text/css"></style></defs><path d="M509.618605 1016.855814C228.613953 1016.855814 0 790.623256 0 509.618605S228.613953 0 509.618605 0s509.618605 228.613953 509.618604 509.618605c0 116.688372-38.102326 226.232558-109.544186 316.725581l-40.483721-30.958139c64.297674-80.967442 100.018605-180.986047 97.63721-283.386047 0-252.427907-204.8-457.227907-457.227907-457.227907S50.009302 257.190698 50.009302 509.618605s204.8 457.227907 457.227907 457.227907c54.772093 0 109.544186-9.525581 161.934884-28.576745l19.051163 47.627907c-57.153488 21.432558-116.688372 33.339535-178.604651 30.95814z" fill="#ff8198" p-id="17392" data-spm-anchor-id="a313x.7781069.0.i19" class="selected"></path><path d="M885.87907 835.869767c-11.906977 0-21.432558-7.144186-23.813954-19.051162L833.488372 652.502326c-2.381395-11.906977 7.144186-26.195349 19.051163-28.576745 11.906977-2.381395 26.195349 7.144186 28.576744 19.051163l23.813954 140.502326 140.502325-23.813954c11.906977-2.381395 26.195349 7.144186 28.576744 19.051163 2.381395 11.906977-7.144186 26.195349-19.051162 28.576744l-164.31628 28.576744h-4.76279z" fill="#ff8198" p-id="17393" data-spm-anchor-id="a313x.7781069.0.i20" class="selected"></path><path d="M190.511628 509.618605c0 176.223256 142.883721 319.106977 319.106977 319.106976s319.106977-142.883721 319.106976-319.106976S683.460465 190.511628 509.618605 190.511628 190.511628 333.395349 190.511628 509.618605z" fill="#ff8198" p-id="17394" data-spm-anchor-id="a313x.7781069.0.i13" class=""></path><path d="M671.553488 283.386047l-116.688372 197.655813h90.493024V523.906977h-107.162791v59.534883h107.162791v45.246512h-107.162791V714.418605h-54.772093v-88.111628h-109.544186v-45.246512h109.544186V523.906977h-109.544186v-42.865117h92.874418l-114.306976-197.655813h61.916279c52.390698 97.637209 85.730233 159.553488 97.637209 185.748837 4.762791-11.906977 14.288372-33.339535 30.95814-64.297675l66.679069-121.451162h61.916279z" fill="#ffffff" p-id="17395" data-spm-anchor-id="a313x.7781069.0.i14" class=""></path></svg>