<?xml version="1.0" standalone="no"?><!DOCTYPE svg PUBLIC "-//W3C//DTD SVG 1.1//EN" "http://www.w3.org/Graphics/SVG/1.1/DTD/svg11.dtd"><svg t="1593762641077" class="icon" viewBox="0 0 1024 1024" version="1.1" xmlns="http://www.w3.org/2000/svg" p-id="18675" xmlns:xlink="http://www.w3.org/1999/xlink" width="200" height="200"><defs><style type="text/css"></style></defs><path d="M642.133333 804.266667c0 53.333333 42.666667 96 96 96s96-42.666667 96-96-42.666667-96-96-96c-25.6 0-49.066667 10.666667-68.266666 27.733333-19.2 17.066667-27.733333 42.666667-27.733334 68.266667z m-484.266666 0c0 53.333333 42.666667 96 96 96s96-42.666667 96-96-42.666667-96-96-96c-25.6 0-49.066667 10.666667-68.266667 27.733333s-27.733333 42.666667-27.733333 68.266667z m0 0" fill="#ff8198" p-id="18676"></path><path d="M72.533333 473.6S42.666667 514.133333 42.666667 552.533333V746.666667c0 21.333333 17.066667 38.4 38.4 38.4h38.4c8.533333-68.266667 66.133333-117.333333 134.4-119.466667 68.266667 0 125.866667 51.2 134.4 119.466667h215.466666c8.533333-68.266667 66.133333-117.333333 134.4-117.333334s125.866667 51.2 134.4 117.333334h70.4c21.333333 0 38.4-17.066667 38.4-38.4V164.266667c0-21.333333-17.066667-38.4-38.4-38.4h-554.666666c-21.333333 0-38.4 17.066667-38.4 38.4v117.333333h-134.4c-27.733333 0-40.533333 17.066667-57.6 38.4l-85.333334 153.6zM106.666667 552.533333c0-10.666667 8.533333-21.333333 14.933333-32l81.066667-151.466666s8.533333-8.533333 14.933333-8.533334h93.866667V554.666667H106.666667z m0 0" fill="#ff8198" p-id="18677"></path></svg>