<?xml version="1.0" standalone="no"?><!DOCTYPE svg PUBLIC "-//W3C//DTD SVG 1.1//EN" "http://www.w3.org/Graphics/SVG/1.1/DTD/svg11.dtd"><svg t="1593762652885" class="icon" viewBox="0 0 1190 1024" version="1.1" xmlns="http://www.w3.org/2000/svg" p-id="19129" xmlns:xlink="http://www.w3.org/1999/xlink" width="232.421875" height="200"><defs><style type="text/css"></style></defs><path d="M1100.815812 1020.374377H85.592381A81.307921 81.307921 0 0 1 4.357078 939.018044V334.231381h409.420117v177.768792l201.393837-101.665159 182.658402 101.665159v-177.768792h384.221681V939.018044a81.307921 81.307921 0 0 1-81.235303 81.356333zM797.829434 3.674381H413.777195V283.519832H4.357078V84.982301a81.283715 81.283715 0 0 1 81.235303-81.332126h1015.223431a81.283715 81.283715 0 0 1 81.235303 81.332126v198.537531H797.829434V3.674381z" fill="#ff8198" p-id="19130"></path><path d="M490.582801 3.674381h230.41682v355.828054l-101.544128-76.248869-128.872692 76.248869v-355.828054z" fill="#ff8198" p-id="19131"></path></svg>