<?xml version="1.0" standalone="no"?><!DOCTYPE svg PUBLIC "-//W3C//DTD SVG 1.1//EN" "http://www.w3.org/Graphics/SVG/1.1/DTD/svg11.dtd"><svg t="1590894404196" class="icon" viewBox="0 0 1024 1024" version="1.1" xmlns="http://www.w3.org/2000/svg" p-id="3524" xmlns:xlink="http://www.w3.org/1999/xlink" width="200" height="200"><defs><style type="text/css"></style></defs><path d="M59.11864438 200.13559344h357.96610125v227.79661031H59.11864438zM601.49152531 200.13559344h357.96610219v227.79661031h-357.96610219zM59.11864438 715.38983094h357.96610125v227.79660937H59.11864438zM601.49152531 715.38983094h357.96610219v227.79660937h-357.96610219z" fill="#e6e6e6" p-id="3525"></path><path d="M362.84745781 32h-216.94915312C80.81355969 32 32 80.81355969 32 140.47457656v216.94915219c0 59.66101688 48.81355969 108.47457656 108.47457656 108.47457656h216.94915219c59.66101688 0 108.47457656-48.81355969 108.47457656-108.47457656V140.47457656c5.42372906-59.66101688-43.38983063-108.47457656-103.0508475-108.47457656z m43.38983063 319.99999969c0 32.5423725-27.11864437 54.23728781-54.23728875 54.23728875H156.74576281c-32.5423725 0-54.23728781-27.11864437-54.23728781-54.23728875V151.32203375c0-32.5423725 27.11864437-54.23728781 54.23728781-54.23728781h195.25423688c32.5423725 0 54.23728781 27.11864437 54.23728875 54.23728781v200.67796594zM878.10169531 32h-216.94915312c-59.66101688 0-108.47457656 48.81355969-108.47457563 108.47457656v216.94915219c0 59.66101688 48.81355969 108.47457656 108.47457563 108.47457656h216.94915312c59.66101688 0 108.47457656-48.81355969 108.47457563-108.47457656V140.47457656c5.42372906-59.66101688-48.81355969-108.47457656-108.47457563-108.47457656z m48.81355875 319.99999969c0 32.5423725-27.11864437 54.23728781-54.23728781 54.23728875h-195.25423781c-32.5423725 0-54.23728781-27.11864437-54.23728782-54.23728875V151.32203375c0-32.5423725 27.11864437-54.23728781 54.23728782-54.23728781h195.25423781c32.5423725 0 54.23728781 27.11864437 54.23728781 54.23728781v200.67796594zM362.84745781 552.67796656h-216.94915312c-59.66101688 0-108.47457656 48.81355969-108.47457563 108.47457563v216.94915312c0 59.66101688 48.81355969 108.47457656 108.47457563 108.47457563h216.94915312c59.66101688 0 108.47457656-48.81355969 108.47457563-108.47457563v-216.94915312c0-59.66101688-48.81355969-108.47457656-108.47457563-108.47457563z m43.38983063 319.99999969c0 32.5423725-27.11864437 54.23728781-54.23728875 54.23728781H156.74576281c-32.5423725 0-54.23728781-27.11864437-54.23728781-54.23728781v-195.25423781c0-32.5423725 27.11864437-54.23728781 54.23728781-54.23728782h195.25423688c32.5423725 0 54.23728781 27.11864437 54.23728875 54.23728782v195.25423781zM878.10169531 552.67796656h-216.94915312c-59.66101688 0-108.47457656 48.81355969-108.47457563 108.47457563v216.94915312c0 59.66101688 48.81355969 108.47457656 108.47457563 108.47457563h216.94915312c59.66101688 0 108.47457656-48.81355969 108.47457563-108.47457563v-216.94915312c5.42372906-59.66101688-48.81355969-108.47457656-108.47457563-108.47457563z m48.81355875 319.99999969c0 32.5423725-27.11864437 54.23728781-54.23728781 54.23728781h-195.25423781c-32.5423725 0-54.23728781-27.11864437-54.23728782-54.23728781v-195.25423781c0-32.5423725 27.11864437-54.23728781 54.23728782-54.23728782h195.25423781c32.5423725 0 54.23728781 27.11864437 54.23728781 54.23728782v195.25423781z" fill="#d4237a" p-id="3526"></path></svg>